<svg width="26" height="26" viewBox="0 0 26 26" fill="none" xmlns="http://www.w3.org/2000/svg">
<path d="M13 25.75C12.5986 25.75 12.2622 25.6142 11.9906 25.3427C11.7191 25.0712 11.5833 24.7347 11.5833 24.3333V14.4521C10.0722 14.4521 8.62014 14.1628 7.22708 13.5844C5.83403 13.0059 4.60625 12.1854 3.54375 11.1229C2.48125 10.0604 1.66667 8.83264 1.1 7.43958C0.533333 6.04653 0.25 4.59444 0.25 3.08333V1.66667C0.25 1.26528 0.385764 0.928819 0.657292 0.657292C0.928819 0.385764 1.26528 0.25 1.66667 0.25H3.08333C4.57083 0.25 6.01111 0.539236 7.40417 1.11771C8.79722 1.69618 10.025 2.51667 11.0875 3.57917C11.8194 4.31111 12.4274 5.11389 12.9115 5.9875C13.3955 6.86111 13.7674 7.79375 14.0271 8.78542C14.1451 8.62014 14.275 8.46076 14.4167 8.30729C14.5583 8.15382 14.7118 7.99444 14.8771 7.82917C15.9396 6.76667 17.1674 5.94618 18.5604 5.36771C19.9535 4.78924 21.4056 4.5 22.9167 4.5H24.3333C24.7347 4.5 25.0712 4.63576 25.3427 4.90729C25.6142 5.17882 25.75 5.51528 25.75 5.91667V7.33333C25.75 8.84444 25.4608 10.2965 24.8823 11.6896C24.3038 13.0826 23.4833 14.3104 22.4208 15.3729C21.3583 16.4354 20.1365 17.25 18.7552 17.8167C17.374 18.3833 15.9278 18.6667 14.4167 18.6667V24.3333C14.4167 24.7347 14.2809 25.0712 14.0094 25.3427C13.7378 25.6142 13.4014 25.75 13 25.75ZM11.5833 11.5833C11.5833 10.45 11.3649 9.36979 10.9281 8.34271C10.4913 7.31562 9.87153 6.40069 9.06875 5.59792C8.26597 4.79514 7.35104 4.17535 6.32396 3.73854C5.29688 3.30174 4.21667 3.08333 3.08333 3.08333C3.08333 4.21667 3.29583 5.30278 3.72083 6.34167C4.14583 7.38056 4.75972 8.30139 5.5625 9.10417C6.36528 9.90694 7.28611 10.5208 8.325 10.9458C9.36389 11.3708 10.45 11.5833 11.5833 11.5833ZM14.4167 15.8333C15.55 15.8333 16.6302 15.6208 17.6573 15.1958C18.6844 14.7708 19.5993 14.1569 20.4021 13.3542C21.2049 12.5514 21.8247 11.6306 22.2615 10.5917C22.6983 9.55278 22.9167 8.46667 22.9167 7.33333C21.7833 7.33333 20.6972 7.55174 19.6583 7.98854C18.6194 8.42535 17.6986 9.04514 16.8958 9.84792C16.0931 10.6507 15.4792 11.5656 15.0542 12.5927C14.6292 13.6198 14.4167 14.7 14.4167 15.8333Z" fill="#7373AB"/>
</svg>
