<svg width="24" height="27" viewBox="0 0 24 27" fill="none" xmlns="http://www.w3.org/2000/svg">
<path d="M11.9998 26.75C8.85956 26.75 6.1856 25.6639 3.97796 23.4917C1.77032 21.3194 0.666504 18.675 0.666504 15.5583C0.666504 14.0236 0.961643 12.5892 1.55192 11.2552C2.1422 9.92118 2.95678 8.73472 3.99567 7.69583L10.5123 1.28542C10.7248 1.09653 10.9609 0.948959 11.2207 0.842709C11.4804 0.736459 11.7401 0.683334 11.9998 0.683334C12.2596 0.683334 12.5193 0.736459 12.779 0.842709C13.0387 0.948959 13.2748 1.09653 13.4873 1.28542L20.004 7.69583C21.0429 8.73472 21.8575 9.92118 22.4478 11.2552C23.038 12.5892 23.3332 14.0236 23.3332 15.5583C23.3332 18.675 22.2294 21.3194 20.0217 23.4917C17.8141 25.6639 15.1401 26.75 11.9998 26.75ZM3.57067 16.8333H20.3582C20.6415 15.1333 20.4821 13.6813 19.88 12.4771C19.278 11.2729 18.6582 10.3639 18.0207 9.75L11.9998 3.8L5.979 9.75C5.3415 10.3639 4.71581 11.2729 4.10192 12.4771C3.48803 13.6813 3.31095 15.1333 3.57067 16.8333Z" fill="#7373AB"/>
</svg>
