<svg width="30" height="31" viewBox="0 0 30 31" fill="none" xmlns="http://www.w3.org/2000/svg">
<path d="M25.9164 20.8438L22.9769 17.9042L18.8331 13.7604V7.91668C18.8331 7.1139 19.0043 6.29341 19.3466 5.45522C19.689 4.61702 20.1317 3.85557 20.6748 3.17084C21.2178 2.48612 21.8199 1.92536 22.481 1.48855C23.1421 1.05175 23.7914 0.833344 24.4289 0.833344C24.8539 0.833344 25.2081 0.998621 25.4914 1.32918C25.7748 1.65973 25.9164 2.04932 25.9164 2.49793V20.8438ZM29.0331 29.9813C28.7498 30.2646 28.4133 30.4063 28.0237 30.4063C27.6341 30.4063 27.2977 30.2646 27.0144 29.9813L24.7831 27.7854H25.9164C25.9164 28.1868 25.7807 28.5233 25.5091 28.7948C25.2376 29.0663 24.9012 29.2021 24.4998 29.2021C24.0984 29.2021 23.7619 29.0663 23.4904 28.7948C23.2189 28.5233 23.0831 28.1868 23.0831 27.7854V26.0854L0.983105 3.98543C0.699772 3.70209 0.558105 3.35973 0.558105 2.95834C0.558105 2.55695 0.699772 2.21459 0.983105 1.93126C1.26644 1.64793 1.6029 1.50626 1.99248 1.50626C2.38206 1.50626 2.71852 1.64793 3.00186 1.93126L29.0331 27.9979C29.3164 28.2813 29.4581 28.6118 29.4581 28.9896C29.4581 29.3674 29.3164 29.6979 29.0331 29.9813ZM15.9998 10.9271L13.1664 8.09376V2.25001C13.1664 1.84862 13.3022 1.51216 13.5737 1.24064C13.8453 0.969107 14.1817 0.833344 14.5831 0.833344C14.9845 0.833344 15.321 0.969107 15.5925 1.24064C15.864 1.51216 15.9998 1.84862 15.9998 2.25001V10.9271ZM11.7498 6.67709L8.91644 3.84376V2.25001C8.91644 1.84862 9.0522 1.51216 9.32373 1.24064C9.59526 0.969107 9.93172 0.833344 10.3331 0.833344C10.7345 0.833344 11.071 0.969107 11.3425 1.24064C11.614 1.51216 11.7498 1.84862 11.7498 2.25001V6.67709ZM7.49977 2.42709L5.90602 0.833344C6.35463 0.833344 6.73241 0.986816 7.03936 1.29376C7.3463 1.6007 7.49977 1.97848 7.49977 2.42709ZM10.3331 29.1667C9.93172 29.1667 9.59526 29.0309 9.32373 28.7594C9.0522 28.4879 8.91644 28.1514 8.91644 27.75V16.2042C7.71227 15.8736 6.7029 15.2125 5.88831 14.2208C5.07373 13.2292 4.66644 12.0722 4.66644 10.75V3.63126L7.49977 6.46459V10.75H8.91644V7.88126L11.7498 10.7146V10.75H11.7852L14.9727 13.9375C14.5949 14.4806 14.1286 14.9469 13.5737 15.3365C13.0189 15.7261 12.4109 16.0153 11.7498 16.2042V27.75C11.7498 28.1514 11.614 28.4879 11.3425 28.7594C11.071 29.0309 10.7345 29.1667 10.3331 29.1667Z" fill="#7373AB"/>
</svg>
