<svg width="30" height="30" viewBox="0 0 30 30" fill="none" xmlns="http://www.w3.org/2000/svg">
<path d="M20.6665 29.1667C19.0846 29.1667 17.8863 28.9011 17.0717 28.3698C16.2571 27.8386 15.5665 27.2778 14.9998 26.6875C14.5512 26.2153 14.1203 25.8021 13.7071 25.4479C13.2939 25.0938 12.7686 24.9167 12.1311 24.9167C11.0686 24.9167 9.88804 24.7337 8.58943 24.3677C7.29082 24.0017 6.06894 23.3997 4.92381 22.5615C3.77867 21.7233 2.81651 20.6313 2.03735 19.2854C1.25818 17.9396 0.856792 16.2868 0.833181 14.3271C0.785959 10.384 1.75992 7.14932 3.75506 4.62293C5.75019 2.09654 8.54221 0.833344 12.1311 0.833344C13.8075 0.833344 15.2242 1.07536 16.3811 1.55939C17.538 2.04341 18.5356 2.6514 19.3738 3.38334C20.212 4.11529 20.9203 4.92397 21.4988 5.80939C22.0773 6.6948 22.6262 7.5507 23.1457 8.37709C23.429 8.84932 23.7123 9.28022 23.9957 9.6698C24.279 10.0594 24.586 10.4195 24.9165 10.75C26.3332 12.1667 27.3957 13.4063 28.104 14.4688C28.8123 15.5313 29.1665 17.1368 29.1665 19.2854C29.1665 22.1188 28.287 24.474 26.528 26.3511C24.7689 28.2281 22.8151 29.1667 20.6665 29.1667ZM20.6665 26.3333C22.0123 26.3333 23.2933 25.6663 24.5092 24.3323C25.7252 22.9983 26.3332 21.316 26.3332 19.2854C26.3332 17.7271 26.103 16.582 25.6426 15.85C25.1821 15.1181 24.279 14.0792 22.9332 12.7333C22.4373 12.2611 21.9946 11.7358 21.6051 11.1573C21.2155 10.5788 20.82 9.98265 20.4186 9.36876C19.4505 7.83404 18.4235 6.50001 17.3373 5.36668C16.2512 4.23334 14.5158 3.66668 12.1311 3.66668C9.08526 3.66668 6.90124 4.75869 5.57901 6.94272C4.25679 9.12675 3.61929 11.5764 3.66651 14.2917C3.69013 15.8736 4.03249 17.1722 4.6936 18.1875C5.35471 19.2028 6.13978 19.9997 7.04881 20.5781C7.95783 21.1566 8.88457 21.5521 9.82901 21.7646C10.7735 21.9771 11.5408 22.0833 12.1311 22.0833C13.3353 22.0833 14.3033 22.3726 15.0353 22.9511C15.7672 23.5295 16.3693 24.0667 16.8415 24.5625C17.361 25.1056 17.8627 25.5365 18.3467 25.8552C18.8307 26.174 19.604 26.3333 20.6665 26.3333ZM14.9998 19.9583C16.3693 19.9583 17.538 19.4743 18.5061 18.5063C19.4742 17.5382 19.9582 16.3695 19.9582 15C19.9582 13.6306 19.4742 12.4618 18.5061 11.4938C17.538 10.5257 16.3693 10.0417 14.9998 10.0417C13.6304 10.0417 12.4617 10.5257 11.4936 11.4938C10.5255 12.4618 10.0415 13.6306 10.0415 15C10.0415 16.3695 10.5255 17.5382 11.4936 18.5063C12.4617 19.4743 13.6304 19.9583 14.9998 19.9583Z" fill="#7373AB"/>
</svg>
